<?xml version="1.0" standalone="no"?>
<!DOCTYPE svg PUBLIC "-//W3C//DTD SVG 20010904//EN"
 "http://www.w3.org/TR/2001/REC-SVG-20010904/DTD/svg10.dtd">
<svg version="1.0" xmlns="http://www.w3.org/2000/svg"
 width="128.000000pt" height="128.000000pt" viewBox="0 0 128.000000 128.000000"
 preserveAspectRatio="xMidYMid meet">
<metadata>
Created by potrace 1.11, written by Peter Selinger 2001-2013
</metadata>
<g transform="translate(0.000000,128.000000) scale(0.100000,-0.100000)"
fill="#000000" stroke="none">
<path d="M176 1199 l-26 -31 0 -508 0 -508 -25 -6 c-29 -7 -44 -49 -25 -71 11
-13 63 -15 346 -15 327 0 334 0 344 21 14 26 -11 69 -40 69 -19 0 -20 8 -20
300 l0 300 24 0 c35 0 74 -36 85 -78 6 -20 10 -111 10 -201 1 -140 3 -169 19
-199 27 -52 63 -75 126 -80 73 -6 134 28 165 91 28 57 26 109 -5 237 -14 58
-31 162 -38 232 l-12 127 23 24 c23 22 23 24 8 60 -24 59 -82 143 -128 188
-37 36 -115 86 -121 77 -25 -31 -23 -43 15 -70 47 -34 103 -119 130 -195 10
-31 23 -112 29 -186 7 -73 22 -177 35 -232 34 -151 37 -171 25 -214 -18 -68
-81 -103 -150 -82 -61 18 -70 49 -70 243 0 89 -5 180 -10 200 -14 51 -62 96
-116 109 l-44 11 0 188 0 189 -26 20 c-25 20 -39 21 -264 21 l-238 0 -26 -31z
m474 -68 c5 -11 10 -84 10 -165 0 -188 14 -176 -220 -176 -235 0 -220 -12
-220 180 0 122 3 151 16 164 13 13 46 16 209 16 182 0 195 -1 205 -19z"/>
</g>
</svg>
