<?xml version="1.0" standalone="no"?>
<!DOCTYPE svg PUBLIC "-//W3C//DTD SVG 20010904//EN"
 "http://www.w3.org/TR/2001/REC-SVG-20010904/DTD/svg10.dtd">
<svg version="1.0" xmlns="http://www.w3.org/2000/svg"
 width="87.000000pt" height="86.000000pt" viewBox="0 0 87.000000 86.000000"
 preserveAspectRatio="xMidYMid meet">
<metadata>
Created by potrace 1.11, written by Peter Selinger 2001-2013
</metadata>
<g transform="translate(0.000000,86.000000) scale(0.100000,-0.100000)"
fill="#000000" stroke="none">
<path d="M381 787 c-19 -24 -349 -736 -343 -742 3 -3 43 -5 89 -5 l84 0 64
135 64 135 123 0 c191 1 213 16 304 204 70 145 79 202 41 239 -37 38 -87 47
-258 47 -119 0 -159 -3 -168 -13z m262 -131 c6 -16 -64 -169 -90 -198 -20 -22
-159 -27 -150 -5 3 6 26 58 53 115 l47 102 67 0 c50 0 69 -4 73 -14z"/>
</g>
</svg>
